<svg width="98" height="90" viewBox="0 0 98 90" fill="none" xmlns="http://www.w3.org/2000/svg">
<path d="M61.2324 29.578H59.3306V25.2307C59.3306 19.0404 54.4228 14 48.3955 14H25.4363C19.409 14 14.5012 19.0404 14.5012 25.2307V29.578H12.7681C6.74078 29.578 1.83301 34.6184 1.83301 40.8087V58.9227C1.83301 65.113 6.74078 70.1534 12.7681 70.1534H14.4859V84.3925C14.4859 87.4798 16.9397 90 19.9458 90H53.8554C56.8614 90 59.3153 87.4798 59.3153 84.3925V70.1534H61.2324C67.2597 70.1534 72.1675 65.113 72.1675 58.9227V40.8087C72.1675 34.6184 67.2597 29.578 61.2324 29.578ZM18.6268 25.2307C18.6268 21.3874 21.6788 18.2528 25.421 18.2528H48.3648C52.107 18.2528 55.159 21.3874 55.159 25.2307V29.578H18.6268V25.2307ZM55.1744 84.424C55.1744 85.1644 54.5762 85.7787 53.8554 85.7787H19.9458C19.2249 85.7787 18.6268 85.1644 18.6268 84.424V60.9389H55.1744V84.424ZM68.0266 58.9384C68.0266 62.7818 64.9746 65.9163 61.2324 65.9163H59.3306V60.9389H62.0606C63.2108 60.9389 64.131 59.9938 64.131 58.8124C64.131 57.6311 63.2108 56.686 62.0606 56.686H11.4492C10.2989 56.686 9.37871 57.6311 9.37871 58.8124C9.37871 59.9938 10.2989 60.9389 11.4492 60.9389H14.5012V65.9163H12.7681C9.02596 65.9163 5.97394 62.7818 5.97394 58.9384V40.8245C5.97394 36.9811 9.02596 33.8466 12.7681 33.8466H61.2324C64.9746 33.8466 68.0266 36.9811 68.0266 40.8245V58.9384Z" fill="black"/>
<path d="M23.6418 71.3974H50.0057C51.1559 71.3974 52.0762 70.4523 52.0762 69.271C52.0762 68.0896 51.1559 67.1445 50.0057 67.1445H23.6418C22.4915 67.1445 21.5713 68.0896 21.5713 69.271C21.5713 70.4523 22.5068 71.3974 23.6418 71.3974Z" fill="black"/>
<path d="M50.1744 75.8398H23.7951C22.6448 75.8398 21.7246 76.7849 21.7246 77.9663C21.7246 79.1476 22.6448 80.0927 23.7951 80.0927H50.159C51.3093 80.0927 52.2295 79.1476 52.2295 77.9663C52.2295 76.7849 51.3093 75.8398 50.1744 75.8398Z" fill="black"/>
<path d="M61.1863 37.9258H56.984C55.8338 37.9258 54.9136 38.8709 54.9136 40.0522C54.9136 41.2336 55.8338 42.1786 56.984 42.1786H61.1863C62.3366 42.1786 63.2568 41.2336 63.2568 40.0522C63.2568 38.8709 62.3366 37.9258 61.1863 37.9258Z" fill="black"/>
<path d="M75.5001 0C63.0934 0 53 8.52425 53 19.0003C53 29.4758 63.0934 38 75.5 38C87.9058 38 98 29.4758 98 19.0003C98.0001 8.52425 87.906 0 75.5001 0ZM75.5001 34.4733C65.3938 34.4733 57.1734 27.5328 57.1734 19.0003C57.1734 10.4658 65.3938 3.52529 75.5001 3.52529C85.6065 3.52529 93.8269 10.4658 93.8269 19.0003C93.8269 27.5328 85.6056 34.4733 75.5001 34.4733Z" fill="#010002"/>
<path d="M85.8262 17.3848H77.4112V10.279C77.4112 9.38703 76.5558 8.66406 75.4995 8.66406C74.4432 8.66406 73.587 9.38628 73.587 10.279V17.3847H65.1719C64.1156 17.3847 63.2603 18.1069 63.2603 18.9996C63.2603 19.8916 64.1156 20.6138 65.1719 20.6138H73.5862V27.7202C73.5862 28.6123 74.4423 29.3344 75.4988 29.3344C76.5551 29.3344 77.4113 28.6122 77.4113 27.7202V20.6138H85.8256C86.8821 20.6138 87.7382 19.8916 87.7382 18.9996C87.7388 18.1069 86.8826 17.3848 85.8262 17.3848Z" fill="#010002"/>
</svg>